<svg width="145" height="17" viewBox="0 0 145 17" fill="none" xmlns="http://www.w3.org/2000/svg" data-darkreader-inline-invert="">
<path d="M0 0V16.7664H1.95792V10.1945H2.00522L6.30319 16.7664H8.78701L4.05962 10.0786L8.07006 5.03929H5.68271L2.00522 10.1025H1.95792V0H0Z" fill="#9b51e0"></path>
<path d="M16.9062 16.7664V8.82382C16.9062 7.38323 16.4276 6.36213 14.7572 6.36213C12.7993 6.36213 12.298 7.89471 12.298 9.86884V16.7664H10.3401V0H12.298V6.54979H12.3945C13.1814 5.17912 14.0895 4.80747 15.6653 4.80747C17.7178 4.80747 18.8642 5.8065 18.8642 8.45217V16.7664H16.9062Z" fill="#9b51e0"></path>
<path d="M21.7319 11.0776C21.7319 7.64083 22.1368 4.8075 26.3156 4.8075C30.4944 4.8075 30.9011 7.64083 30.9011 11.0776C30.9011 16.2567 28.8713 16.9982 26.3156 16.9982C23.7599 16.9982 21.7319 16.2549 21.7319 11.0776ZM28.8467 10.2644C28.8467 7.05945 27.8195 6.36399 26.3156 6.36399C24.8116 6.36399 23.7844 7.06129 23.7844 10.2644C23.7844 14.0729 24.2857 15.4435 26.3156 15.4435C28.3454 15.4435 28.8467 14.0729 28.8467 10.2644Z" fill="#9b51e0"></path>
<path d="M37.3255 16.9982C34.7224 16.9982 33.0994 15.8833 33.1712 13.1898H35.3921C35.3921 13.8631 35.4167 15.4417 37.3973 15.4417C38.5683 15.4417 39.4744 14.8622 39.4744 13.6534C39.4744 11.5634 33.4569 11.5174 33.4569 8.01065C33.4569 6.7798 34.2211 4.80566 37.6111 4.80566C39.7601 4.80566 41.5988 5.80469 41.4305 8.12655H39.2569C39.2815 6.89571 38.6118 6.24625 37.3709 6.24625C36.3209 6.24625 35.5075 6.80372 35.5075 7.82482C35.5075 9.89095 41.5251 9.84495 41.5251 13.4216C41.5251 15.9992 39.7109 16.9982 37.3236 16.9982" fill="#9b51e0"></path>
<path d="M46.0424 0H44.0845V16.7664H46.0424V0Z" fill="#9b51e0"></path>
<path d="M55.4027 15.0719H55.3554C54.7595 16.4186 53.8269 17 52.323 17C49.7672 17 49.0276 15.3975 49.0276 13.1456C49.0276 9.59289 52.6086 9.43098 55.3554 9.49906C55.4027 7.9444 55.4273 6.24808 53.3256 6.24808C52.0127 6.24808 51.3203 7.10728 51.4395 8.33812H49.3151C49.4097 5.71453 50.8436 4.8075 53.3974 4.8075C56.5017 4.8075 57.3133 6.36399 57.3133 8.33812V13.9809C57.3133 14.91 57.4079 15.863 57.5517 16.7682H55.4027V15.0737V15.0719ZM50.9855 13.2836C50.9855 14.4206 51.5587 15.4435 52.8715 15.4435C54.0652 15.4435 55.5464 14.7242 55.3554 10.9378C53.4939 10.9617 50.9855 10.798 50.9855 13.2836Z" fill="#9b51e0"></path>
<path d="M64.5735 5.03931H66.7698L69.4674 14.9781H69.5165L72.4298 5.03931H74.4823L70.7102 16.7664H68.1545L64.5735 5.03931Z" fill="#9b51e0"></path>
<path d="M78.234 11.5192C78.234 14.7941 79.142 15.4435 80.6686 15.4435C82.006 15.4435 82.6984 14.3985 82.7703 13.2137H84.9193C84.8947 15.8152 83.2489 17 80.7159 17C78.1829 17 76.1304 16.2567 76.1304 11.0776C76.1304 7.64083 76.5371 4.8075 80.7159 4.8075C84.1531 4.8075 85.0139 6.6418 85.0139 10.5202V11.5192H78.2321H78.234ZM82.9368 10.0786C82.9368 6.66572 81.9587 6.24624 80.5248 6.24624C79.2839 6.24624 78.2567 6.82763 78.2321 10.0786H82.9349H82.9368Z" fill="#9b51e0"></path>
<path d="M94.567 16.7664V8.63803C94.567 7.3851 94.113 6.36216 92.4426 6.36216C90.2936 6.36216 89.9834 8.22039 89.9834 9.82288V16.7664H88.0254V7.47709C88.0254 6.66389 87.9781 5.85253 87.9062 5.03932H89.9834V6.54798H90.0798C90.8441 5.22514 91.7502 4.80566 93.3033 4.80566C95.8817 4.80566 96.5268 6.31432 96.5268 8.63619V16.7646H94.5689L94.567 16.7664Z" fill="#9b51e0"></path>
<path d="M99.9411 5.03925V2.7873L101.899 1.9281V5.03925H104.525V6.47984H101.899V13.6552C101.899 14.3985 101.899 15.3497 103.69 15.3497C103.834 15.3497 104.144 15.3037 104.574 15.2558V16.7185C103.929 16.7645 103.284 16.9043 102.639 16.9043C100.777 16.9043 99.9411 16.161 99.9411 14.8143V6.47984H97.9604V5.03925H99.9411Z" fill="#9b51e0"></path>
<path d="M112.574 5.03931H114.532V14.3286C114.532 15.1418 114.58 15.9532 114.651 16.7664H112.574V15.3497H112.502C111.857 16.4186 110.711 16.9982 109.447 16.9982C107.346 16.9982 106.199 15.9771 106.199 13.979V5.03931H108.157V13.1677C108.157 14.5843 108.827 15.5355 110.212 15.5355C111.261 15.5355 112.574 14.7683 112.574 12.8181V5.03931Z" fill="#9b51e0"></path>
<path d="M119.857 6.80371H119.905C120.716 5.0154 121.719 4.8075 123.629 4.8075V6.78163C123.463 6.75772 123.272 6.73564 123.104 6.71172C122.937 6.6878 122.769 6.66572 122.58 6.66572C120.406 6.66572 119.857 8.26822 119.857 9.84679V16.7664H117.899V5.03931H119.857V6.80371Z" fill="#9b51e0"></path>
<path d="M127.453 11.5192C127.453 14.7941 128.361 15.4435 129.887 15.4435C131.225 15.4435 131.917 14.3985 131.989 13.2137H134.138C134.113 15.8152 132.468 17 129.935 17C127.402 17 125.349 16.2567 125.349 11.0776C125.349 7.64083 125.756 4.8075 129.935 4.8075C133.372 4.8075 134.233 6.6418 134.233 10.5202V11.5192H127.451H127.453ZM132.156 10.0786C132.156 6.66572 131.177 6.24624 129.744 6.24624C128.503 6.24624 127.475 6.82763 127.451 10.0786H132.154H132.156Z" fill="#9b51e0"></path>
<path d="M140.8 16.9982C138.198 16.9982 136.574 15.8833 136.646 13.1898H138.867C138.867 13.8631 138.892 15.4417 140.872 15.4417C142.041 15.4417 142.949 14.8622 142.949 13.6534C142.949 11.5634 136.932 11.5174 136.932 8.01065C136.932 6.7798 137.696 4.80566 141.086 4.80566C143.235 4.80566 145.074 5.80469 144.905 8.12655H142.732C142.757 6.89571 142.087 6.24625 140.846 6.24625C139.796 6.24625 138.983 6.80372 138.983 7.82482C138.983 9.89095 145 9.84495 145 13.4216C145 15.9992 143.186 16.9982 140.797 16.9982" fill="#9b51e0"></path>
</svg>