<?xml version="1.0" encoding="utf-8"?>
<!-- Generator: Adobe Illustrator 19.2.1, SVG Export Plug-In . SVG Version: 6.00 Build 0)  -->
<svg version="1.1" id="layer" xmlns="http://www.w3.org/2000/svg" xmlns:xlink="http://www.w3.org/1999/xlink" x="0px" y="0px"
	 viewBox="0 0 652 652" style="enable-background:new 0 0 652 652;" xml:space="preserve">
<style type="text/css">
	.st0{fill:#B38A1A;}
</style>
<path d="M162.7,464c5.9,8.4,8.8,19.4,8.8,33.1c0,15.7-3.7,29.1-11,40.3c-7.3,11.2-17.1,19.6-29.4,25.2c-12.2,5.6-25.9,8.4-41,8.4
	c-15.8,0-31.3-3.4-46.5-10.2c-15.2-6.8-28.2-17.1-38.9-30.7l29.4-30.2c6.9,9.9,15.6,17.4,26.2,22.5c10.6,5.1,21.3,7.7,32.2,7.7
	c10.9,0,19.7-2.5,26.4-7.6c6.7-5,10-11.8,10-20.3c0-6.3-2-11.4-6-15.5c-4-4-9-7.3-15-9.7c-6-2.5-14-5.3-24-8.4
	c-16.9-4.9-30.5-10-40.7-15.3c-10.2-5.3-18.3-12.1-24.2-20.7c-5.9-8.5-8.8-19.5-8.8-32.9c0-15.5,3.6-28.8,10.7-40
	c7.1-11.2,16.8-19.8,29-25.7c12.2-5.9,25.6-8.9,40-8.9c14.2,0,28,3,41.2,8.9c13.2,5.9,24.5,14.5,33.9,25.7l-27.4,29.2
	c-5.6-7.2-12.8-12.8-21.7-17c-8.9-4.1-18-6.2-27.4-6.2c-10.7,0-19.3,2.5-26,7.6s-10,11.9-10,20.7c0,6.9,2.1,12.6,6.3,17
	s9.4,7.8,15.5,10.4c6.1,2.6,14.3,5.3,24.5,8.2c16.7,4.7,30,9.5,40,14.4C148.8,449,156.8,455.6,162.7,464z M377.4,330.5l-64.1,175.7
	l-64.7-175.7h-45.7L293,565.6h40l90.1-235.1H377.4z M639.3,565.6h-45.4l-20-53.4h-93.8l-20,53.4h-45.4l92.1-235.1h40.4L639.3,565.6z
	 M559.2,472.9l-32-86.3l-32.4,86.3H559.2z"/>
<path class="st0" d="M257.8,267.1c-4.8,0-9.5-0.2-14.1-0.5c-37.6-3-63.1-18-71.9-42.5C155.3,178.4,207.4,120.4,293.1,89
	c37.5-13.7,75.6-19.9,107.2-17.5c37.6,3,63.1,18,71.9,42.5c8.8,24.4-1.1,52.5-28,79.1c-22.6,22.4-55.8,42.3-93.3,56
	C318.8,260.8,286.4,267.1,257.8,267.1 M386.3,114.7c-23.3,0-51.3,5.4-78.4,15.4c-31.4,11.5-59.7,28.3-77.7,46.1
	c-15,14.9-19.7,27.3-17.6,33c2.1,5.7,13.5,12.2,34.6,13.8c25.2,2,57.6-3.5,89-15c31.4-11.5,59.7-28.3,77.7-46.1
	c15-14.9,19.7-27.3,17.6-33c-2.1-5.7-13.5-12.2-34.6-13.8C393.5,114.8,389.9,114.7,386.3,114.7"/>
</svg>
