<svg xmlns="http://www.w3.org/2000/svg" viewBox="0 0 91 36">
  <path
    d="M10.3431 0h5.3911l-2.3655 35.9986H8.30697l.49477-4.5481H6.21529l-1.10074 4.5481H0L10.3431 0ZM7.26321 26.9578H9.2993l1.8151-16.1633-3.85119 16.1633ZM26.629 0c4.1264 0 6.2723 2.191 5.3911 6.95917L28.1133 29.0408C27.2336 34.0817 24.4275 36 20.2455 36h-6.1624l6.3834-36h6.1625Zm.0556 6.95917c.2196-1.31488-.0556-2.13702-1.5955-2.13702h-.1654L20.3025 31.1765h.1654c1.2661 0 2.0361-.6575 2.3113-2.1371L26.686 6.95779l-.0014.00138ZM50.5075 0h5.5565L45.9406 35.9986h-5.8873l2.3655-22.1356-5.4468 22.1356h-5.8872L33.7268 0h5.5565l-3.4662 26.3543L42.0894 0h5.6121l-3.0257 26.3543L50.5075 0ZM65.9123 4.82215h-3.7956L60.246 15.3426h2.8061l-.8256 4.7114h-2.806L57.44 31.1765h3.8512l-.8798 4.8221h-9.1881L57.604 0h9.1881l-.8798 4.82215ZM76.4208 4.82215h-3.797L70.7531 15.3426h2.806l-.8255 4.7114h-2.8061L67.947 31.1765h3.8512l-.8797 4.8221h-9.1882L68.1124 0h9.1881l-.8797 4.82215ZM91 0l-4.6545 12.3626-1.3982 23.6346H79.666l1.5733-15.0145-1.8707 4.1647-1.9027 10.8512h-5.2271L78.6208 0h5.2272l-2.4016 13.3066L85.9925 0H91Z"
    fill="#fff" />
</svg>

