<svg xmlns="http://www.w3.org/2000/svg" viewBox="0 0 180 25">
  <path
    d="M13.8371 2.58579c0-2.020375-1.8882-2.6304896-3.4716-2.5604765V.205347c.9441.070013 1.6719.460087 1.6719 1.110213 0 .45008-.3147 1.01019-1.2588 1.01019-.7475 0-1.9866-.45009-3.14706-.84016C6.35306 1.0355 5.13358.615424 4.12064.615424 2.13408.615424.629405 2.11571.629405 3.97606c0 1.50028 1.140795 2.02037 1.603015 2.21041l.0295-.07001c-.29503-.20004-.48188-.42008-.48188-1.0602 0-.5401.38354-1.26024 1.40632-1.26024.92444 0 2.13408.42008 3.7371.88017 1.37682.39007 2.86182.76014 3.68794.87016v3.28062L9.05753 10.1272l1.55387 1.3603v4.4908c-.79662.4601-1.72105.6101-2.51765.6101-1.47516 0-2.83232-.4201-3.95344-1.6803l4.18947-2.0704V5.74639L3.21587 8.06682c.53106-1.38026 1.52434-2.41045 2.61596-3.08058l-.0295-.08001C2.76348 5.74639 0 8.57692 0 12.0776c0 4.1908 3.29454 7.3013 7.10048 7.3013 4.12062 0 6.53992-3.2806 6.50052-6.7512h-.0786c-.5999 1.3302-1.603 2.5905-2.734 3.2506v-4.3808l1.6227-1.3303-1.6227-1.33023V5.55635c1.5047 0 3.0585-1.01019 3.0585-2.96055M5.21226 14.148l-1.18997.6101c-.72775-.9602-1.20964-2.3205-1.20964-4.0708 0-.72012.07868-1.70031.31471-2.39043l2.10457-.96018-.0295 6.80131.00983.01ZM24.3599 8.38688l-.7966.64012-2.4291-2.20041-2.8126 2.21042V.495402L14.496 3.18591c.4425.15003.9736.39007.9736 1.43027V16.4284l-1.308 1.0102.118.12.6589-.4601 2.2816 2.1204 3.0585-2.0704-.0983-.15-.7769.5201-1.0621-1.0802V9.31706l.7277-.5401 1.6719 1.48024v6.1912c0 3.9207-.8556 4.7309-2.5865 5.371v.1c2.8815.12 5.4778-.8701 5.4778-5.8911V9.27705l.8654-.72014-.118-.15002-.0197-.02001Zm5.1336 10.80202 4.4354-3.6207-.118-.17-2.321 1.8704-2.6651-2.1405v-1.3302l4.6025-3.3006-2.3209-3.67071-5.1139 2.86054v6.80127l-.9933.7902.118.15.9441-.7602 3.4421 2.5405h-.0099v-.02Zm-.6786-5.6711V8.36688l2.2325 3.55062-2.2325 1.6003ZM52.2701 1.62561c0-.32006-.0787-.59011-.1967-.960176h-.0688c-.3147.870166-.6589 1.330246-1.6522 1.330246-.8654 0-1.5538-.5401-1.9177-.94017 0 .03-2.911 3.42064-2.911 3.42064l.1475.12002.8261-.96018c.6294.49009 1.19 1.0602 2.5865 1.0802v8.64161L43.1241 2.85584c-.4622-.79014-1.2588-1.970365-2.616-1.970365-1.603 0-2.8126 1.400265-2.616 3.770705h.0984c.118-.59011.4622-1.33025 1.1605-1.33025.5605 0 1.0129.5401 1.2784 1.0302v3.38063c-1.839 0-2.8815.87016-2.8815 2.34044 0 .6101.4426 1.9404 1.6916 2.1704v-.07c-.1672-.17-.3344-.3201-.3344-.6701 0-.5701.413-.8802 1.1605-.8802.118 0 .295.03.3638.05v4.3808c-2.1635.03-3.8256 1.2303-3.8256 3.3107 0 2.0803 1.6719 2.8805 3.4126 2.7805v-.07c-1.0916-.1201-1.6522-.6902-1.6522-1.5003 0-.8802.6294-1.3603 1.426-1.3603s1.4063.5201 1.9177 1.1102l2.911-3.3306-.118-.12-.7474.8702c-1.1211-1.0102-1.8391-1.4803-3.1274-1.6804V4.68619l8.2216 14.57271h.4426V4.7362c1.5735-.10002 2.9798-1.30025 2.9798-3.11059Zm2.7635 17.54329 4.4353-3.6207-.118-.17-2.3209 1.8703-2.6651-2.1404v-1.3302l4.6025-3.3006-2.3209-3.67071-5.114 2.86053v6.80128l-.9932.7901.118.1501.9441-.7602 3.442 2.5405-.0098-.02Zm-.6786-5.6711V8.34688l2.2324 3.55062-2.2324 1.6003Zm20.8687-5.52099-.6785.52009-1.9374-1.68031-2.2521 2.07039.9244.88016v7.72146l-2.3012-1.6003V9.62712l.7965-.57011-2.3701-2.24042-2.2029 2.07039.9245.88016v7.46136l-.1476.1001-2.1635-1.6003V9.59711c0-1.43027-.7081-1.85035-1.6031-2.41045-.7474-.47009-1.1407-.91017-1.1407-1.63031 0-.79015.6785-1.11021.8949-1.23023-.7769-.03-2.9307.76014-2.9798 2.76052-.0296 1.03019.4622 1.48028.9736 1.97037.5114.49009.9932.96019.9932 1.83039v6.0111l-1.0424.8401.118.1201.9933-.7902 2.5864 2.1404 2.4685-1.7503 2.7143 1.7503 5.3303-3.2006V9.05701l1.1899-.94018-.0983-.15003.0098.01001Zm17.8496-5.8411-1.013.94018-2.2816-2.02038-3.0782 2.51047V1.20554h-.1868V18.1387c-.3344-.05-1.0425-.25-1.8194-.3701V3.59598c0-1.03019-.7277-2.47046-2.5471-2.47046S79.187 2.68581 79.187 4.03607h.0787c.0983-.61012.5114-1.16022 1.1113-1.16022s1.1605.39007 1.1605 1.78033v4.04076c-1.7211.07001-2.7635 1.16022-2.7635 2.34046 0 .6701.413 1.9203 1.721 1.9703v-.1c-.4425-.19-.5311-.42-.5311-.6701 0-.5901.5606-.7901 1.3375-.7901h.1869v6.5112c-1.4752.5201-2.1636 1.5303-2.1636 2.7805 0 1.7203 1.3572 3.0506 3.3437 3.0506 1.4063 0 2.3996-.2501 3.6879-.5401 1.0425-.2201 2.1734-.4701 2.7832-.4701.7769 0 1.1211.3501 1.1211.9102 0 .7201-.2655 1.0802-.6786 1.2102v.1c1.6719-.3201 2.6455-1.3002 2.6455-2.8305 0-1.5303-1.4752-2.5405-3.1274-2.5405-.8555 0-2.3996.27-3.6584.5701-1.4063.3201-2.6159.4701-3.0585.4701-.7081 0-1.5735-.3201-1.5735-1.2803 0-.8701.7081-1.5602 2.4488-1.5602.9441 0 1.8685.15 3.029.42 1.2391.2701 2.0849.6402 3.147.6402 1.4752 0 2.6652-.5401 2.6652-2.7406V3.30593l1.0916-1.01019-.118-.15003v-.01Zm-4.1698 6.78127c-.2656.30006-.5803.5401-1.0917.5401-.5605 0-.8556-.30005-1.1211-.5401V3.82603l.7278-.59011 1.4751 1.28024v4.41082l.0099-.01Zm0 2.41042c-.2459-.25-.5606-.4701-1.0917-.4701-.531 0-.8949.2701-1.1211.4701V9.15703c.2164.19003.5802.49009 1.1211.49009.5409 0 .8556-.25005 1.0917-.49009v2.17037Zm0 5.101c0 .8401-.4131 1.7803-1.4752 1.7803-.1672 0-.5606-.03-.7278-.05v-6.5812c.2459-.2201.5606-.5201 1.1212-.5201.5114 0 .7966.25 1.0916.5201v4.8609l-.0098-.01Zm8.6346 2.7405 4.9469-3.1306V9.18703l-3.1964-2.39044-4.9467 2.88053v6.78128l-.9736.7901.0983.1501.7966-.6702 3.2749 2.4405Zm-.3639-3.5507V8.31687l2.4685 1.87033v7.3014l-2.4685-1.8704Zm14.7618-8.65158c-.384.27005-.728.42008-1.092.42008-.383 0-.865-.25005-1.121-.57011 0 .03-1.839 2.02038-1.839 2.02038l-1.839-2.02038-3 2.1204.099.17003.796-.5401 1.092 1.21022v6.63126l-1.308 1.0102.118.12.659-.4601 2.449 2.1204 3.098-2.0904-.099-.15-.796.4901-1.259-1.1602V9.007c.511.57011 1.091 1.0602 1.79 1.0602 1.258 0 2.104-1.53029 2.252-3.11059m11.683 9.81189-.924.5901-5.114-7.76149.265-.37007c.561.34006 1.062.81016 2.134.81016 1.072 0 2.429-1.14022 2.547-3.23061-.265.37007-.796.81015-1.671.81015-.63 0-1.259-.42008-1.643-.81015l-3.491 5.22101 4.632 7.1713 3.363-2.2704-.098-.17v.01Zm-6.205.19-.777.5201-1.063-1.0802V.495402l-3.825 2.690508c.442.15003.974.39007.974 1.43027V16.4284l-1.308 1.0102.118.12.658-.4601 2.282 2.1204 3.059-2.0704-.099-.15-.019-.04Zm22.511-14.39271c0-2.020379-1.889-2.6304934-3.472-2.56048022V.205347c.944.070013 1.672.460087 1.672 1.110213 0 .45008-.315 1.01019-1.259 1.01019-.747 0-1.986-.45009-3.147-.84016-1.278-.45009-2.498-.870166-3.511-.870166-1.986 0-3.491 1.500286-3.491 3.350626 0 1.50028 1.141 2.02038 1.603 2.21042l.029-.07001c-.295-.20004-.481-.42008-.481-1.0602 0-.5401.383-1.26024 1.406-1.26024.924 0 2.134.42008 3.737.88016 1.377.39008 2.862.76015 3.688.87017v3.28061l-1.554 1.30024 1.554 1.3603v4.4908c-.797.4601-1.721.6101-2.518.6101-1.475 0-2.842-.4201-3.953-1.6803l4.189-2.0704V5.74639l-5.114 2.32043c.531-1.38026 1.525-2.41045 2.616-3.08058l-.029-.08001c-3.029.84016-5.793 3.67069-5.793 7.17137 0 4.1908 3.295 7.3013 7.101 7.3013 4.12 0 6.54-3.2806 6.5-6.7512h-.068c-.6 1.3302-1.603 2.5905-2.734 3.2506v-4.3808l1.622-1.3303-1.622-1.33023V5.55635c1.504 0 3.058-1.01019 3.058-2.96055m-8.635 11.5622-1.189.6101c-.728-.9602-1.21-2.3205-1.21-4.0708 0-.72012.069-1.7003.315-2.39043l2.104-.96018-.029 6.80131.009.01Zm11.733-12.31234L140.918 3.666l1.819 2.09039 2.134-1.82034-1.819-2.09039Zm3.245 15.15284-.777.5201-1.062-1.0802V9.26705l.895-.72014-.118-.15003-.747.59012-1.77-2.14041-2.911 2.07039.098.17003.728-.49009.973 1.23023v6.61125l-1.308 1.0102.118.12.659-.4601 2.282 2.1204 3.058-2.0704-.098-.15-.02-.01Zm16.355-.1-.728.4901-1.141-1.1102V9.24704l.925-.72013-.118-.15003-.826.64012-2.429-2.20041-2.734 2.17041-2.4-2.17041-2.695 2.1404-1.819-2.1404-2.911 2.07039.098.17003.728-.49009 1.043 1.21022v6.61126l-.797.8101 2.321 2.0004 2.252-2.0704-.924-.8801V9.20704l.6-.45009 1.671 1.48025v6.1612l-.777.8101 2.351 2.0004 2.203-2.0704-.925-.8801V9.21704l.581-.47009 1.691 1.50025v6.0612l-.678.7201 2.37 2.2004 3.127-2.1704-.098-.15h.019l.02-.01Zm8.458-1.5003-2.321 1.8704-2.665-2.1405v-1.3302l4.602-3.3006-2.321-3.67071-5.114 2.86054v6.93127l3.511 2.5905 4.436-3.6207-.119-.17-.009-.02Zm-4.996-1.8804V8.36688l2.232 3.55062-2.232 1.6003ZM180 12.5477l-1.967-1.5303c1.308-1.16024 1.77-2.63052 1.77-3.69072 0-.15002-.029-.42007-.049-.67012h-.079c-.186.5401-.708 1.01019-1.504 1.01019-.797 0-1.239-.45009-1.721-.99019l-4.504 2.54048v3.72066l1.721 1.3803c-1.721 1.5503-2.056 2.5105-2.056 3.4006 0 .8902.512 1.6703 1.387 2.0204l.069-.12c-.217-.19-.413-.3201-.413-.7902 0-.34.344-.8801 1.121-.8801.993 0 1.603.6901 1.918 1.0602 0-.03 4.307-2.6905 4.307-2.6905v-3.7707Zm-1.013-3.05061c-.679 1.23021-2.173 2.44041-3.058 3.13061l-1.092-.9402V8.06682c.442.99019 1.337 1.82034 2.498 1.82034.678 0 1.121-.12002 1.642-.39007m-1.868 8.13151c-.512-1.1602-1.603-2.0004-2.813-2.0004-.295 0-1.19-.03-1.967.4601.462-.7901 1.839-2.2104 3.59-3.2806l1.19 1.0102v3.8107Z"
    fill="#fff"
  />
</svg>

