<svg xmlns="http://www.w3.org/2000/svg" viewBox="0 0 328 138">
  <path fill="#002C21" d="M0 0h64v68H0V0Z" />
  <path fill="#004E3B" d="M66 0h64v68H66V0Z" />
  <path fill="#006145" d="M132 0h64v68h-64V0Z" />
  <path fill="#007A56" d="M198 0h64v68h-64V0Z" />
  <path fill="#096" d="M264 0h64v68h-64V0Z" />
  <path fill="#fff" d="M23.887 85.543V138H53.21V85.543H77V70H0v15.543h23.887Z" />
  <path fill="#fff" fill-rule="evenodd"
    d="M79.334 70v68h61.305c3.449 0 6.735-.712 9.859-2.137 3.189-1.425 5.792-3.53 7.81-6.314 2.017-2.85 3.026-6.282 3.026-10.298 0-4.662-1.399-8.516-4.198-11.56-2.733-3.043-6.085-5.116-10.054-6.217 1.822-.453 3.677-1.295 5.564-2.525s3.449-2.882 4.686-4.955c1.301-2.072 1.952-4.533 1.952-7.383 0-3.367-.879-6.282-2.636-8.742-1.692-2.526-3.97-4.469-6.833-5.829-2.864-1.36-5.987-2.04-9.372-2.04H79.334Zm28.798 13.794h15.912c1.757 0 3.123.486 4.1 1.457 1.041.907 1.561 2.202 1.561 3.886v2.332c0 1.619-.52 2.914-1.561 3.885-.977.972-2.343 1.457-4.1 1.457h-15.912V83.794Zm0 25.646h16.009c1.887 0 3.384.55 4.491 1.651 1.106 1.037 1.659 2.526 1.659 4.469v2.526c0 1.943-.553 3.464-1.659 4.565-1.107 1.037-2.604 1.555-4.491 1.555h-16.009V109.44ZM163.666 138V70h60.385c3.89 0 7.391.971 10.502 2.914 3.112 1.878 5.575 4.469 7.39 7.772 1.815 3.303 2.723 7.059 2.723 11.268 0 4.145-.908 7.901-2.723 11.269-1.815 3.367-4.278 6.055-7.39 8.063-3.111 1.943-6.612 2.914-10.502 2.914H192.74V138h-29.074Zm43.466-53.817H192.74V99.92h14.392c2.074 0 3.695-.55 4.862-1.651 1.167-1.101 1.75-2.656 1.75-4.663v-3.012c0-2.007-.583-3.562-1.75-4.663-1.167-1.165-2.788-1.748-4.862-1.748Z"
    clip-rule="evenodd" />
  <path fill="#fff"
    d="M247 70v68h19.151V96.229L293.314 138H328V70h-19.249v41.869L281.686 70H247Z" />
</svg>


