<svg xmlns="http://www.w3.org/2000/svg" viewBox="0 0 189 32">
  <path
    d="M50.5357 21.7186c.6271.0313 1.3796.094 1.9127.1881.094.2508.094.8466.0627 1.0974h-5.7067c.0314-.3135.1568-.7839.2509-1.0661.4076-.094 1.1915-.2194 1.6618-.2508V10.4307h-3.2296c-.0313.4703-.1881 1.3169-.2508 1.6932-.3136.094-.8466.1254-1.1915.1254V9.23918h11.1624v3.10422c-.4076 0-.9093-.0628-1.2228-.1255-.0941-.4389-.2195-1.2542-.2509-1.7559h-3.1982v11.2566Zm8.7795.0627c.4703.0313 1.0974.1254 1.4423.2508.0627.2509.0941.6898.0314.9407h-4.766c.0313-.3136.1254-.6271.2822-.878.3135-.1254.8779-.3135 1.2855-.3762V9.80358h-1.4423c.0313-.34491.1568-.75253.3449-1.06608.4703-.18813 1.1601-.2822 1.7872-.2822.345 0 .7212.03136 1.0034.12543v3.85667c0 .8153-.0313 1.6618-.0941 2.4771h.1882c.3135-.7839 1.3482-1.6932 3.1041-1.6932 1.5992 0 3.0101.5017 3.0101 3.5745 0 1.6618-.0313 3.3236-.1254 4.9855.5331.0313 1.2229.1254 1.5991.2508.0314.1568.0627.4076.0627.6271 0 .1254.0001.2195-.0313.3449h-4.7033c.0314-.3135.1254-.6271.2822-.8779.3136-.1254.7839-.3136 1.1288-.3763v-4.6406c0-1.5364-.5017-2.5084-1.9127-2.5084-1.0347 0-2.1321.7212-2.5397 1.2856v5.8948h.0627Zm10.7235-3.261c.0313 2.1322 1.3796 3.4491 3.2295 3.4491.8466 0 2.0381-.2822 2.7907-.5644.0313.3136-.0941.8466-.2509 1.1288-.7212.4076-1.9127.8152-3.1355.8152-2.8533 0-4.4838-2.1321-4.4838-4.86 0-2.9161 1.8186-5.2363 4.5779-5.2363 2.383 0 3.3863 1.7245 3.3863 4.2329 0 .3449-.0313.6898-.0627 1.0661.0314-.0314-6.0515-.0314-6.0515-.0314Zm4.3583-1.1601c.1254-1.3796-.2508-3.0415-1.9126-3.0415-1.411 0-2.3203 1.2229-2.4457 3.0415h4.3583Zm7.3371 5.6439c.0314-.3135.1255-.7839.2509-1.0661.3449-.094 1.0974-.2194 1.5364-.2508V10.4934c-.4703-.0314-1.1288-.0941-1.4737-.1254-.0627-.2509-.0941-.87798-.0314-1.12882h5.0169c.0627.25084.0313.84662-.0314 1.12882-.4703.094-1.0974.1254-1.6304.1567v11.2252c.5643.0314 1.2855.0941 1.7558.1881.0628.2195.0941.5017.0941.7839 0 .1254 0 .1882-.0313.3136l-5.4559-.0314Zm10.0024-1.2228c.5017.0313 1.0974.1254 1.4423.2508.0627.2509.0941.6898.0314.9407h-4.766c.0313-.3136.1254-.6271.2822-.878.3135-.1254.8779-.3135 1.2855-.3762v-7.055h-1.4737c.0314-.3449.1568-.7525.3449-1.066.4077-.1568 1.0661-.2822 1.6619-.2822.3449 0 .6584.0313.9406.1254v1.4423h.1882c.3449-.6898 1.4109-1.6932 3.1982-1.6932 1.5678 0 2.9474.5017 2.9474 3.5745 0 1.6619-.0314 3.2923-.1254 4.9855.533.0314 1.2228.1254 1.5991.2509.0313.1567.0627.4076.0627.6271 0 .1254 0 .2194-.0314.3449h-4.7033c.0314-.3136.1255-.6271.2822-.878.3136-.1254.7839-.3135 1.1288-.3762V17.078c0-1.5364-.4703-2.5084-1.8813-2.5084-1.0034 0-2.0694.7211-2.477 1.2855l.0627 5.9262Zm14.6115-8.2151c.063.3449.094.8466.094 1.1601h-2.696v7.0236c.564.0314 1.505.2195 1.975.3449.063.2509.094.6271.031.9093h-5.299c.032-.3135.126-.6271.282-.8779.314-.1254.878-.3136 1.286-.3763v-7.0236h-1.568c0-.2822.126-.7525.251-1.0347.376-.1254.909-.2822 1.317-.3449v-1.0661c0-2.69651 1.63-3.76259 3.512-3.76259.627 0 1.379.09407 2.163.34491.032.21949.063.43897.063.68981 0 .62707-.125 1.31697-.282 1.75587-.314 0-.91-.1254-1.16-.3135V9.61544c-.188-.09406-.471-.12541-.627-.12541-1.067 0-1.913.53307-1.913 2.57107v1.5051h2.571Zm10.128 4.5779c0 3.3236-1.756 5.2049-4.515 5.2049-2.916 0-4.516-1.7872-4.516-5.2049 0-3.0415 1.944-4.9228 4.516-4.9228 2.696 0 4.515 1.7559 4.515 4.9228Zm-4.515 4.0134c1.818 0 2.696-1.5364 2.696-4.0134 0-2.1322-1.066-3.7313-2.696-3.7313-1.756 0-2.728 1.505-2.728 3.7313.031 2.4143 1.034 4.0134 2.728 4.0134Zm9.281-6.8041c.282-1.2228 1.285-2.1321 2.571-2.1321.251 0 .658.0627.909.1568.126.2508.251.6898.251 1.1915 0 .1881-.031.3762-.063.533-.345-.2195-.878-.3449-1.348-.3449-.909 0-1.787.5017-2.289 1.6305v5.3304c.564.0313 1.505.1881 1.975.3449.063.2508.095.6271.032.9093h-5.299c.031-.3136.125-.6271.282-.878.314-.1254.878-.3135 1.286-.3762v-7.055h-1.443c.032-.3449.157-.7525.345-1.066.439-.1568 1.066-.2822 1.662-.2822.345 0 .658.0313.941.1254v1.8813h.188v.0313Zm8.183 6.4279c.502.0313 1.098.1254 1.443.2508.062.2509.094.6898.031.9407h-4.735c.032-.3136.126-.6271.283-.878.313-.1254.878-.3135 1.285-.3762v-7.055h-1.442c.031-.3449.157-.7525.345-1.066.407-.1568 1.066-.2822 1.662-.2822.345 0 .658.0313.94.1254v1.4423h.188c.345-.6898 1.38-1.6932 3.136-1.6932 1.223 0 2.258.345 2.634 1.8186h.094c.345-.7211 1.411-1.8186 3.198-1.8186 1.536 0 2.916.5017 2.916 3.5745 0 1.6932-.031 3.355-.125 4.9855.533.0314 1.223.1254 1.599.2509.031.1567.063.4076.063.6271 0 .1254 0 .2194-.032.3449h-4.703c.031-.3136.125-.6271.282-.878.314-.1254.784-.3135 1.129-.3762V17.078c0-1.5364-.47-2.5084-1.819-2.5084-1.003 0-2.006.7211-2.414 1.2855v5.9262c.502.0313 1.097.1568 1.442.2822.063.2508.094.6898.032.9406h-4.578c.031-.3135.125-.6271.282-.8779.314-.1254.784-.3136 1.129-.3763v-4.6406c0-1.5364-.471-2.5084-1.819-2.5084-1.003 0-2.007.7212-2.414 1.2856l-.032 5.8948Zm20.381.0627c-.501.972-1.599 1.505-2.79 1.505-1.443 0-2.822-.8466-2.822-2.6652 0-2.0381 1.724-3.1041 3.7-3.1041.627 0 1.348.1254 1.85.3449v-1.0661c0-1.4737-.627-2.2262-1.882-2.2262-.846 0-2.195.5017-2.916.972-.094-.1881-.094-.4076-.094-.6898 0-.3763.094-.7839.22-1.0034.658-.3762 2.195-.6898 3.229-.6898 2.164 0 3.136 1.0661 3.136 3.7626v3.8567c0 .4076.094.878.251 1.0347.313 0 1.003-.1254 1.379-.2508.032.0941.032.1568.032.2195 0 .3135-.094.6584-.189.9093-.438.2822-1.473.5644-2.132.5644-.407-.2509-.784-.878-.846-1.5051l-.126.0314Zm-.062-3.0415c-.377-.094-1.004-.1568-1.38-.1568-1.536 0-2.414.6899-2.414 1.7559 0 1.0975.846 1.5992 1.818 1.5992.784 0 1.599-.3763 2.007-.9721-.031-.0313-.031-2.2262-.031-2.2262Zm5.8-7.6507c.314-.1567.941-.3135 1.317-.3135v2.7279h2.885c.031.1881.094.8466.063 1.1601h-2.948v5.4559c0 1.2855.188 1.8499 1.286 1.8499.564 0 1.223-.0941 1.85-.2508.031.094.031.2195.031.2508 0 .2822-.094.5958-.188.7839-.784.3449-1.662.533-2.446.533-1.536 0-2.289-.8466-2.289-2.8846 0-1.1602.032-3.7313.094-5.7381h-1.379c0-.2822.125-.7838.251-1.0347.313-.1254.784-.2822 1.16-.3449-.032-.0313.313-2.1949.313-2.1949Zm5.989 3.5432c.032-.3449.157-.7525.345-1.0661.47-.1568 1.129-.2822 1.787-.2822.345 0 .722.0314 1.035.1254v8.3092c.502.0313 1.16.1568 1.568.2822.031.1567.063.4076.063.6271 0 .1254 0 .2195-.032.3449h-4.891c.031-.3136.125-.6271.282-.878.314-.1254.878-.3135 1.286-.3762v-7.055c0-.0313-1.443-.0313-1.443-.0313Zm3.481-4.6406c0 .7525-.471 1.1602-1.098 1.1602-.721 0-1.129-.4077-1.129-1.1602 0-.65844.471-1.09742 1.129-1.09742.627 0 1.098.40762 1.098 1.09742Zm11.35 8.0897c0 3.3236-1.756 5.2049-4.515 5.2049-2.916 0-4.515-1.7872-4.515-5.2049 0-3.0415 1.944-4.9228 4.515-4.9228 2.728 0 4.515 1.7559 4.515 4.9228Zm-4.484 4.0134c1.819 0 2.697-1.5364 2.697-4.0134 0-2.1322-1.066-3.7313-2.697-3.7313-1.755 0-2.728 1.505-2.728 3.7313 0 2.4143 1.035 4.0134 2.728 4.0134Zm9.47-.3762c.501.0313 1.097.1254 1.442.2508.063.2509.094.6898.031.9407h-4.766c.032-.3136.126-.6271.283-.878.313-.1254.878-.3135 1.285-.3762v-7.055h-1.442c.031-.3449.157-.7525.345-1.066.407-.1568 1.066-.2822 1.662-.2822.344 0 .658.0313.94.1254v1.4423h.188c.345-.6898 1.411-1.6932 3.199-1.6932 1.567 0 2.947.5017 2.947 3.5745 0 1.6619-.031 3.2923-.125 4.9855.533.0314 1.222.1254 1.599.2509.031.1567.062.4076.062.6271 0 .1254 0 .2194-.031.3449h-4.703c.031-.3136.125-.6271.282-.878.282-.1254.784-.3135 1.129-.3762V17.078c0-1.5364-.471-2.5084-1.882-2.5084-1.003 0-2.069.7211-2.477 1.2855l.032 5.9262Z"
    fill="#fff"
  />
  <path
    d="M32.381 16.2c0-8.68536-7.0549-15.740283-15.7403-15.740283C7.95531.459717.900391 7.51464.900391 16.2c0 8.6854 7.054919 15.7404 15.740309 15.7404 8.6854 0 15.7403-7.0236 15.7403-15.7404Z"
    fill="#ED403A"
  />
  <path
    d="m21.8143 20.8093-3.6058-.8466v-7.4626l3.6058-.8466c.3763-.094.6585-.4389.6585-.8152V9.36461H10.84v1.47369c0 .3763.2508.7212.6271.8152l3.6058.8466v7.4626l-3.6058.8466c-.3763.094-.6585.4389-.6585.8152v1.4737h11.6328v-1.4737c.0314-.4076-.2508-.7212-.6271-.8152Z"
    fill="#fff"
  />
</svg>
