<svg xmlns="http://www.w3.org/2000/svg" viewBox="0 0 340 55">
  <path fill="#edf2f5"
    d="M4.02597e-06 36.685V21.349C-0.000526443 20.2383 0.262632 19.1433 0.767834 18.1541C1.27304 17.1649 2.00585 16.3097 2.906 15.659L22.648 1.409C23.9159 0.493342 25.44 0.000346267 27.004 0L27.066 0C28.689 0 30.259 0.508 31.567 1.452L51.251 15.659C52.1512 16.3097 52.8841 17.1648 53.3893 18.154C53.8945 19.1432 54.1576 20.2382 54.157 21.349V33.651C54.1576 34.7617 53.8943 35.8567 53.3889 36.8457C52.8835 37.8348 52.1504 38.6897 51.25 39.34L31.527 53.562C30.2318 54.4966 28.6752 54.9997 27.078 55C25.4755 55.0001 23.9135 54.4963 22.613 53.56C20.032 51.701 15.881 48.705 15.881 48.705V29.777C15.881 29.528 16.161 29.384 16.363 29.529L26.901 37.134C27.007 37.211 27.15 37.211 27.256 37.134L40.261 27.748C40.3002 27.7196 40.3322 27.6824 40.3542 27.6393C40.3763 27.5961 40.3877 27.5484 40.3877 27.5C40.3877 27.4516 40.3763 27.4039 40.3542 27.3607C40.3322 27.3176 40.3002 27.2804 40.261 27.252L27.256 17.866C27.2043 17.8287 27.1422 17.8086 27.0785 17.8086C27.0148 17.8086 26.9527 17.8287 26.901 17.866L0.482004 36.933C0.436506 36.9659 0.382798 36.9855 0.326831 36.9897C0.270864 36.9939 0.214823 36.9826 0.164915 36.9569C0.115008 36.9312 0.0731844 36.8922 0.044077 36.8442C0.0149696 36.7962 -0.000284776 36.7411 4.02597e-06 36.685Z" />
  <path fill="#edf2f5"
    d="M157.241 16.4419C160.648 16.442 163.629 17.2098 166.184 18.7466C168.74 20.2825 170.727 22.4227 172.147 25.1665C173.588 27.8885 174.309 31.049 174.309 34.6489C174.309 38.2489 173.588 41.4093 172.147 44.1313C170.727 46.8532 168.74 48.9821 166.184 50.5181C163.629 52.0329 160.648 52.7895 157.241 52.7896C153.857 52.7896 150.875 52.033 148.298 50.5181C145.742 48.9821 143.744 46.8532 142.303 44.1313C140.883 41.4093 140.173 38.2489 140.173 34.6489C140.173 31.049 140.883 27.8885 142.303 25.1665C143.744 22.4227 145.742 20.2825 148.298 18.7466C150.875 17.2097 153.857 16.4419 157.241 16.4419ZM214.279 16.4419C217.685 16.4419 220.667 17.2097 223.223 18.7466C225.778 20.2825 227.765 22.4227 229.185 25.1665C230.626 27.8885 231.347 31.049 231.347 34.6489C231.347 38.2489 230.626 41.4093 229.185 44.1313C227.765 46.8532 225.778 48.9821 223.223 50.5181C220.667 52.033 217.686 52.7896 214.279 52.7896C210.894 52.7895 207.913 52.0329 205.336 50.5181C202.781 48.9821 200.782 46.8532 199.341 44.1313C197.921 41.4093 197.212 38.2489 197.212 34.6489C197.212 31.049 197.921 27.8885 199.341 25.1665C200.782 22.4227 202.781 20.2825 205.336 18.7466C207.913 17.2098 210.894 16.442 214.279 16.4419ZM243.323 37.645C243.323 40.191 243.934 42.1229 245.157 43.4399C246.402 44.7568 248.116 45.4146 250.3 45.4146C251.764 45.4145 253.063 45.1189 254.199 44.5259C255.334 43.9339 256.23 43.012 256.885 41.7612C257.54 40.4873 257.868 38.8631 257.868 36.8882V17.2319H266.156V51.9995H258.032V46.5913C257.153 48.0643 256.116 49.2854 254.92 50.2554C252.91 51.8793 250.399 52.6909 247.385 52.6909C244.982 52.6909 242.853 52.1759 240.997 51.144C239.14 50.0901 237.688 48.5433 236.64 46.5024C235.591 44.4385 235.067 41.9252 235.067 38.9624V17.2319H243.323V37.645ZM340 51.9995H331.876V46.6997H331.81C331.089 48.0377 330.194 49.1581 329.124 50.0571C328.071 50.938 326.859 51.6083 325.553 52.0327C324.243 52.4717 322.834 52.6909 321.327 52.6909C318.335 52.6909 315.703 51.9343 313.432 50.4204C311.183 48.9054 309.435 46.7869 308.19 44.0649C306.967 41.344 306.356 38.1825 306.356 34.5825C306.356 31.0267 306.978 27.8884 308.223 25.1665C309.468 22.4447 311.215 20.3269 313.465 18.812C315.714 17.2981 318.313 16.5405 321.262 16.5405C322.768 16.5405 324.166 16.7485 325.455 17.1655C326.765 17.5605 327.944 18.1763 328.993 19.0103C330.041 19.8442 330.937 20.8986 331.679 22.1704H331.745V2.94385H340V51.9995ZM99.7766 2.94287C103.359 2.94287 106.449 3.58003 109.048 4.85303C111.669 6.12602 113.677 7.93771 115.075 10.2856C116.494 12.6345 117.204 15.41 117.204 18.6147C117.204 21.8417 116.483 24.629 115.042 26.978C113.6 29.326 111.558 31.1479 108.916 32.4429C106.295 33.7158 103.194 34.353 99.6125 34.353H89.7844V52.0005H81.137V2.94287H99.7766ZM136.715 16.9028C137.283 16.9028 137.785 16.913 138.222 16.936C138.681 16.958 139.074 16.9907 139.402 17.0347V24.4097C138.89 24.3406 138.376 24.2855 137.862 24.2446C137.077 24.1769 136.29 24.1442 135.503 24.146C134.215 24.146 133.035 24.4529 131.965 25.0679C130.917 25.6609 130.076 26.5611 129.443 27.7681C128.831 28.975 128.525 30.4901 128.525 32.311V51.9995H120.27V17.2319H128.231V22.9937H128.329C128.962 20.9969 129.956 19.4816 131.31 18.4497C132.686 17.4187 134.488 16.9028 136.715 16.9028ZM196.473 9.62744H193.295C191.897 9.62744 190.903 9.92311 190.314 10.5161C189.724 11.1081 189.429 12.1186 189.429 13.5454V17.2319H196.473V23.9155H189.429V51.9995H181.141V23.9155H174.917V17.2319H181.141V12.1616C181.141 10.1638 181.545 8.48445 182.353 7.12354C183.161 5.74166 184.341 4.69854 185.891 3.99658C187.464 3.29359 189.386 2.94287 191.657 2.94287H196.473V9.62744ZM290.253 16.5405C292.677 16.5406 294.817 17.0667 296.674 18.1206C298.53 19.1526 299.982 20.6891 301.031 22.731C302.079 24.771 302.603 27.285 302.603 30.271V51.9995H294.315V31.5874C294.315 29.0414 293.703 27.1085 292.48 25.7915C291.279 24.4748 289.565 23.8169 287.337 23.8169C285.896 23.8169 284.607 24.1126 283.471 24.7056C282.336 25.2986 281.429 26.2202 280.752 27.4712C280.097 28.7232 279.77 30.3473 279.77 32.3442V51.9995H271.514V17.2319H279.639V22.6157C280.509 21.1488 281.54 19.93 282.718 18.9771C284.749 17.3531 287.261 16.5405 290.253 16.5405ZM157.241 23.3892C155.473 23.3892 153.932 23.8491 152.622 24.772C151.312 25.6719 150.296 26.9669 149.575 28.6567C148.876 30.3247 148.527 32.322 148.527 34.6489C148.527 36.9759 148.876 38.9731 149.575 40.6411C150.296 42.309 151.312 43.5927 152.622 44.4927C153.932 45.3926 155.472 45.8433 157.241 45.8433C159.01 45.8432 160.54 45.3926 161.827 44.4927C163.138 43.5927 164.142 42.3089 164.841 40.6411C165.562 38.9511 165.922 36.9539 165.922 34.6489C165.922 32.322 165.562 30.3247 164.841 28.6567C164.142 26.9669 163.138 25.6719 161.827 24.772C160.54 23.8501 159.01 23.3892 157.241 23.3892ZM214.279 23.3892C212.51 23.3892 210.971 23.8492 209.66 24.772C208.35 25.672 207.334 26.9668 206.614 28.6567C205.915 30.3247 205.565 32.322 205.565 34.6489C205.565 36.9759 205.915 38.9731 206.614 40.6411C207.334 42.3091 208.35 43.5927 209.66 44.4927C210.971 45.3925 212.51 45.8432 214.279 45.8433C216.047 45.8433 217.577 45.3926 218.865 44.4927C220.175 43.5927 221.181 42.3091 221.88 40.6411C222.6 38.9511 222.961 36.9539 222.961 34.6489C222.961 32.322 222.6 30.3247 221.88 28.6567C221.181 26.9668 220.175 25.6719 218.865 24.772C217.577 23.8501 216.047 23.3892 214.279 23.3892ZM323.26 23.4224C321.578 23.4224 320.093 23.8608 318.805 24.7388C317.516 25.5947 316.511 26.857 315.791 28.5249C315.07 30.1708 314.71 32.1907 314.71 34.5825C314.71 36.9755 315.07 39.0063 315.791 40.6743C316.511 42.3421 317.516 43.6045 318.805 44.4604C320.093 45.3164 321.578 45.7437 323.26 45.7437C325.073 45.7436 326.645 45.294 327.977 44.394C329.309 43.4731 330.347 42.1782 331.089 40.5103C331.832 38.8203 332.203 36.8435 332.203 34.5825C332.203 32.3227 331.832 30.3578 331.089 28.6899C330.347 27.0219 329.309 25.7272 327.977 24.8052C326.645 23.8832 325.073 23.4224 323.26 23.4224ZM89.7844 26.9126H99.2844C101.228 26.9126 102.9 26.5833 104.298 25.9243C105.717 25.2443 106.797 24.2889 107.54 23.0601C108.304 21.8091 108.687 20.3267 108.687 18.6147C108.687 16.903 108.304 15.4427 107.54 14.2358C106.797 13.0071 105.717 12.0637 104.298 11.4038C102.9 10.7238 101.228 10.3843 99.2844 10.3843H89.7844V26.9126Z" />
</svg>

